<svg overflow="visible" viewBox="-1 -1 2 2" xmlns="http://www.w3.org/2000/svg">
    <path d="M0,0 L0,-1 A1,1,0,0,1,0.70710677,-0.70710677 z" fill="hsl(45, 80%, 40%)" stroke="black"
        stroke-width="0.01" />
    <path d="M0,0 L0.70710677,-0.70710677 A1,1,0,0,1,1,0 z" fill="hsl(45, 40%, 65%)" stroke="black"
        stroke-width="0.01" />
    <path d="M0,0 L1,0 A1,1,0,0,1,0.70710677,0.70710677 z" fill="hsl(247.5, 40%, 40%)" stroke="black"
        stroke-width="0.01" />
    <path d="M0,0 L0.70710677,0.70710677 A1,1,0,0,1,0,1 z" fill="hsl(135, 60%, 77.5%)" stroke="black"
        stroke-width="0.01" />
    <path d="M0,0 L0,1 A1,1,0,0,1,-0.70710677,0.70710677 z" fill="hsl(135, 60%, 40%)" stroke="black"
        stroke-width="0.01" />
    <path d="M0,0 L-0.70710677,0.70710677 A1,1,0,0,1,-1,0 z" fill="hsl(337.5, 80%, 77.5%)" stroke="black"
        stroke-width="0.01" />
    <path d="M0,0 L-1,0 A1,1,0,0,1,-0.70710677,-0.70710677 z" fill="hsl(270, 40%, 65%)" stroke="black"
        stroke-width="0.01" />
    <path d="M0,0 L-0.70710677,-0.70710677 A1,1,0,0,1,-0,-1 z" fill="hsl(180, 80%, 77.5%)" stroke="black"
        stroke-width="0.01" />
    <path d="M0,0 L0,-0.7415816 A0.7415816,0.7415816,0,0,1,0.5243774,-0.5243774 z" fill="hsl(337.5, 60%, 52.5%)"
        stroke="black" stroke-width="0.01" />
    <path d="M0,0 L0.5243774,-0.5243774 A0.7415816,0.7415816,0,0,1,0.7415816,0 z" fill="hsl(202.5, 60%, 77.5%)"
        stroke="black" stroke-width="0.01" />
    <path d="M0,0 L0.7415816,0 A0.7415816,0.7415816,0,0,1,0.5243774,0.5243774 z" fill="hsl(90, 40%, 52.5%)"
        stroke="black" stroke-width="0.01" />
    <path d="M0,0 L0.5243774,0.5243774 A0.7415816,0.7415816,0,0,1,0,0.7415816 z" fill="hsl(67.5, 80%, 40%)"
        stroke="black" stroke-width="0.01" />
    <path d="M0,0 L0,0.7415816 A0.7415816,0.7415816,0,0,1,-0.5243774,0.5243774 z" fill="hsl(22.5, 80%, 52.5%)"
        stroke="black" stroke-width="0.01" />
    <path d="M0,0 L-0.5243774,0.5243774 A0.7415816,0.7415816,0,0,1,-0.7415816,0 z" fill="hsl(67.5, 20%, 40%)"
        stroke="black" stroke-width="0.01" />
    <path d="M0,0 L-0.7415816,0 A0.7415816,0.7415816,0,0,1,-0.5243774,-0.5243774 z" fill="hsl(90, 20%, 52.5%)"
        stroke="black" stroke-width="0.01" />
    <path d="M0,0 L-0.5243774,-0.5243774 A0.7415816,0.7415816,0,0,1,-0,-0.7415816 z" fill="hsl(67.5, 40%, 40%)"
        stroke="black" stroke-width="0.01" />
    <path d="M0,0 L0,-0.45534182 A0.45534182,0.45534182,0,0,1,0.32197526,-0.32197526 z" fill="hsl(22.5, 20%, 77.5%)"
        stroke="black" stroke-width="0.01" />
    <path d="M0,0 L0.32197526,-0.32197526 A0.45534182,0.45534182,0,0,1,0.45534182,0 z" fill="hsl(90, 20%, 65%)"
        stroke="black" stroke-width="0.01" />
    <path d="M0,0 L0.45534182,0 A0.45534182,0.45534182,0,0,1,0.32197526,0.32197526 z" fill="hsl(45, 80%, 52.5%)"
        stroke="black" stroke-width="0.01" />
    <path d="M0,0 L0.32197526,0.32197526 A0.45534182,0.45534182,0,0,1,0,0.45534182 z" fill="hsl(157.5, 20%, 40%)"
        stroke="black" stroke-width="0.01" />
    <path d="M0,0 L0,0.45534182 A0.45534182,0.45534182,0,0,1,-0.32197526,0.32197526 z" fill="hsl(135, 40%, 40%)"
        stroke="black" stroke-width="0.01" />
    <path d="M0,0 L-0.32197526,0.32197526 A0.45534182,0.45534182,0,0,1,-0.45534182,0 z" fill="hsl(180, 20%, 77.5%)"
        stroke="black" stroke-width="0.01" />
    <path d="M0,0 L-0.45534182,0 A0.45534182,0.45534182,0,0,1,-0.32197526,-0.32197526 z" fill="hsl(247.5, 80%, 77.5%)"
        stroke="black" stroke-width="0.01" />
    <path d="M0,0 L-0.32197526,-0.32197526 A0.45534182,0.45534182,0,0,1,-0,-0.45534182 z" fill="hsl(225, 20%, 40%)"
        stroke="black" stroke-width="0.01" />

</svg>
