<svg overflow="visible" viewBox="-1 -1 2 2" xmlns="http://www.w3.org/2000/svg">
    <path d="M0,0 L0,-1 A1,1,0,0,0,0.70710677,-0.70710677 z" fill="hsl(127.51471, 80%, 40%)" stroke="black"
        stroke-width="0.01" />
    <path d="M0,0 L0.70710677,-0.70710677 A1,1,0,0,0,1,0 z" fill="hsl(127.51471, 40%, 65%)" stroke="black"
        stroke-width="0.01" />
    <path d="M0,0 L1,0 A1,1,0,0,0,0.70710677,0.70710677 z" fill="hsl(144.38971, 40%, 40%)" stroke="black"
        stroke-width="0.01" />
    <path d="M0,0 L0.70710677,0.70710677 A1,1,0,0,0,0,1 z" fill="hsl(135.01471, 60%, 77.5%)" stroke="black"
        stroke-width="0.01" />
    <path d="M0,0 L0,1 A1,1,0,0,0,-0.70710677,0.70710677 z" fill="hsl(135.01471, 60%, 40%)" stroke="black"
        stroke-width="0.01" />
    <path d="M0,0 L-0.70710677,0.70710677 A1,1,0,0,0,-1,0 z" fill="hsl(151.88971, 80%, 77.5%)" stroke="black"
        stroke-width="0.01" />
    <path d="M0,0 L-1,0 A1,1,0,0,0,-0.70710677,-0.70710677 z" fill="hsl(146.26471, 40%, 65%)" stroke="black"
        stroke-width="0.01" />
    <path d="M0,0 L-0.70710677,-0.70710677 A1,1,0,0,0,-0,-1 z" fill="hsl(138.76471, 80%, 77.5%)" stroke="black"
        stroke-width="0.01" />
    <path d="M0,0 L0,-0.7415816 A0.7415816,0.7415816,0,0,0,0.5243774,-0.5243774 z" fill="hsl(251.18384, 60%, 52.5%)"
        stroke="black" stroke-width="0.01" />
    <path d="M0,0 L0.5243774,-0.5243774 A0.7415816,0.7415816,0,0,0,0.7415816,0 z" fill="hsl(239.93384, 60%, 77.5%)"
        stroke="black" stroke-width="0.01" />
    <path d="M0,0 L0.7415816,0 A0.7415816,0.7415816,0,0,0,0.5243774,0.5243774 z" fill="hsl(230.55884, 40%, 52.5%)"
        stroke="black" stroke-width="0.01" />
    <path d="M0,0 L0.5243774,0.5243774 A0.7415816,0.7415816,0,0,0,0,0.7415816 z" fill="hsl(228.68384, 80%, 40%)"
        stroke="black" stroke-width="0.01" />
    <path d="M0,0 L0,0.7415816 A0.7415816,0.7415816,0,0,0,-0.5243774,0.5243774 z" fill="hsl(224.93384, 80%, 52.5%)"
        stroke="black" stroke-width="0.01" />
    <path d="M0,0 L-0.5243774,0.5243774 A0.7415816,0.7415816,0,0,0,-0.7415816,0 z" fill="hsl(228.68384, 20%, 40%)"
        stroke="black" stroke-width="0.01" />
    <path d="M0,0 L-0.7415816,0 A0.7415816,0.7415816,0,0,0,-0.5243774,-0.5243774 z" fill="hsl(230.55884, 20%, 52.5%)"
        stroke="black" stroke-width="0.01" />
    <path d="M0,0 L-0.5243774,-0.5243774 A0.7415816,0.7415816,0,0,0,-0,-0.7415816 z" fill="hsl(228.68384, 40%, 40%)"
        stroke="black" stroke-width="0.01" />
    <path d="M0,0 L0,-0.45534182 A0.45534182,0.45534182,0,0,0,0.32197526,-0.32197526 z"
        fill="hsl(167.05148, 20%, 77.5%)" stroke="black" stroke-width="0.01" />
    <path d="M0,0 L0.32197526,-0.32197526 A0.45534182,0.45534182,0,0,0,0.45534182,0 z" fill="hsl(172.67648, 20%, 65%)"
        stroke="black" stroke-width="0.01" />
    <path d="M0,0 L0.45534182,0 A0.45534182,0.45534182,0,0,0,0.32197526,0.32197526 z" fill="hsl(168.92648, 80%, 52.5%)"
        stroke="black" stroke-width="0.01" />
    <path d="M0,0 L0.32197526,0.32197526 A0.45534182,0.45534182,0,0,0,0,0.45534182 z" fill="hsl(178.30148, 20%, 40%)"
        stroke="black" stroke-width="0.01" />
    <path d="M0,0 L0,0.45534182 A0.45534182,0.45534182,0,0,0,-0.32197526,0.32197526 z" fill="hsl(176.42648, 40%, 40%)"
        stroke="black" stroke-width="0.01" />
    <path d="M0,0 L-0.32197526,0.32197526 A0.45534182,0.45534182,0,0,0,-0.45534182,0 z"
        fill="hsl(180.17648, 20%, 77.5%)" stroke="black" stroke-width="0.01" />
    <path d="M0,0 L-0.45534182,0 A0.45534182,0.45534182,0,0,0,-0.32197526,-0.32197526 z"
        fill="hsl(185.80148, 80%, 77.5%)" stroke="black" stroke-width="0.01" />
    <path d="M0,0 L-0.32197526,-0.32197526 A0.45534182,0.45534182,0,0,0,-0,-0.45534182 z"
        fill="hsl(183.92648, 20%, 40%)" stroke="black" stroke-width="0.01" />
</svg>
