<svg overflow="visible" viewBox="-1 -1 2 2" xmlns="http://www.w3.org/2000/svg">
    <path d="M 0,0 L 0,-1 A 1,1,0,0,1,0.70710677,-0.70710677 z" fill="IndianRed" stroke="black" stroke-width="0.01" />
    <path d="M 0,0 L 0.70710677,-0.70710677 A 1,1,0,0,1,1,0 z" fill="LightCoral" stroke="black" stroke-width="0.01" />
    <path d="M 0,0 L 1,0 A 1,1,0,0,1,0.70710677,0.70710677 z" fill="Salmon" stroke="black" stroke-width="0.01" />
    <path d="M 0,0 L 0.70710677,0.70710677 A 1,1,0,0,1,0,1 z" fill="DarkSalmon" stroke="black" stroke-width="0.01" />
    <path d="M 0,0 L 0,1 A 1,1,0,0,1,-0.70710677,0.70710677 z" fill="LightSalmon" stroke="black" stroke-width="0.01" />
    <path d="M 0,0 L -0.70710677,0.70710677 A 1,1,0,0,1,-1,0 z" fill="Coral" stroke="black" stroke-width="0.01" />
    <path d="M 0,0 L -1,0 A 1,1,0,0,1,-0.70710677,-0.70710677 z" fill="Tomato" stroke="black" stroke-width="0.01" />
    <path d="M 0,0 L -0.70710677,-0.70710677 A 1,1,0,0,1,0,-1 z" fill="OrangeRed" stroke="black" stroke-width="0.01" />

    <path d="M0,0 L0,-0.8164966 A0.8164966,0.8164966,0,0,1,0.57735026,-0.57735026 z" fill="LightYellow" stroke="black"
        stroke-width="0.01" />
    <path d="M0,0 L0.57735026,-0.57735026 A0.8164966,0.8164966,0,0,1,0.8164966,0 z" fill="LemonChiffon" stroke="black"
        stroke-width="0.01" />
    <path d="M0,0 L0.8164966,0 A0.8164966,0.8164966,0,0,1,0.57735026,0.57735026 z" fill="LightGoldenrodYellow"
        stroke="black" stroke-width="0.01" />
    <path d="M0,0 L0.57735026,0.57735026 A0.8164966,0.8164966,0,0,1,0,0.8164966 z" fill="PapayaWhip" stroke="black"
        stroke-width="0.01" />
    <path d="M0,0 L0,0.8164966 A0.8164966,0.8164966,0,0,1,-0.57735026,0.57735026 z" fill="Moccasin" stroke="black"
        stroke-width="0.01" />
    <path d="M0,0 L-0.57735026,0.57735026 A0.8164966,0.8164966,0,0,1,-0.8164966,0 z" fill="PeachPuff" stroke="black"
        stroke-width="0.01" />
    <path d="M0,0 L-0.8164966,0 A0.8164966,0.8164966,0,0,1,-0.57735026,-0.57735026 z" fill="PaleGoldenrod"
        stroke="black" stroke-width="0.01" />
    <path d="M0,0 L-0.57735026,-0.57735026 A0.8164966,0.8164966,0,0,1,-0,-0.8164966 z" fill="Khaki" stroke="black"
        stroke-width="0.01" />

    <path d="M0,0 L0,-0.57735026 A0.57735026,0.57735026,0,0,1,0.4082483,-0.4082483 z" fill="MediumSeaGreen"
        stroke="black" stroke-width="0.01" />
    <path d="M0,0 L0.4082483,-0.4082483 A0.57735026,0.57735026,0,0,1,0.57735026,0 z" fill="SeaGreen" stroke="black"
        stroke-width="0.01" />
    <path d="M0,0 L0.57735026,0 A0.57735026,0.57735026,0,0,1,0.4082483,0.4082483 z" fill="ForestGreen" stroke="black"
        stroke-width="0.01" />
    <path d="M0,0 L0.4082483,0.4082483 A0.57735026,0.57735026,0,0,1,0,0.57735026 z" fill="Green" stroke="black"
        stroke-width="0.01" />
    <path d="M0,0 L0,0.57735026 A0.57735026,0.57735026,0,0,1,-0.4082483,0.4082483 z" fill="DarkGreen" stroke="black"
        stroke-width="0.01" />
    <path d="M0,0 L-0.4082483,0.4082483 A0.57735026,0.57735026,0,0,1,-0.57735026,0 z" fill="YellowGreen" stroke="black"
        stroke-width="0.01" />
    <path d="M0,0 L-0.57735026,0 A0.57735026,0.57735026,0,0,1,-0.4082483,-0.4082483 z" fill="OliveDrab" stroke="black"
        stroke-width="0.01" />
    <path d="M0,0 L-0.4082483,-0.4082483 A0.57735026,0.57735026,0,0,1,-0,-0.57735026 z" fill="Olive" stroke="black"
        stroke-width="0.01" />
</svg>
